<mxfile host="app.diagrams.net" modified="2023-07-11T14:04:05.552Z" agent="Mozilla/5.0 (Windows NT 10.0; Win64; x64) AppleWebKit/537.36 (KHTML, like Gecko) Chrome/114.0.0.0 Safari/537.36" version="21.6.1" etag="owcpFX7rn94GpeH-mu-O" type="github">
  <diagram name="Страница 1" id="Ks5t1agvMijjeEm8DYxA">
    <mxGraphModel>
      <root>
        <mxCell id="0" />
        <mxCell id="1" parent="0" />
      </root>
    </mxGraphModel>
  </diagram>
</mxfile>
